# xmcd
#
# Track frame offsets: 
#        150
#        16033
#        35737
#        56368
#        74395
#        87606
#        104118
#        122685
#        140644
#        156987
#        169155
#        186448
#        199947
#        214005
#        231256
#        246900
#        263441
#        277873
#
# Disc length: 3984 seconds
#
# Revision: 0
# Processed by: cddbd v1.5.2PL0 Copyright (c) Steve Scherf et al.
# Submitted via: ExactAudioCopy v0.99pb4
#
DISCID=0d0f8e12
DTITLE=Backwards Sam Firk and Delta X - What You Think This Is
DYEAR=2001
DGENRE=Blues
TTITLE0=Sugar Lou Stomp
TTITLE1=Pat That Thing
TTITLE2=Success Blues
TTITLE3=Be Da De Dum
TTITLE4=Umis Majola
TTITLE5=Maybe I Have The Blues
TTITLE6=Son Of A Gun
TTITLE7=What You Think This Is?
TTITLE8=Don't Want That Junk
TTITLE9=Hoodai
TTITLE10=You Can't Buy It
TTITLE11=That's Why I Live Alone
TTITLE12=Dazed and Confused
TTITLE13=Hawaiian Hotel
TTITLE14=Naggy Sakki
TTITLE15=House Rent Stomp
TTITLE16=Right String, Wrong Yo Yo
TTITLE17=St. Louis Blues
EXTD=
EXTT0=
EXTT1=
EXTT2=
EXTT3=
EXTT4=
EXTT5=
EXTT6=
EXTT7=
EXTT8=
EXTT9=
EXTT10=
EXTT11=
EXTT12=
EXTT13=
EXTT14=
EXTT15=
EXTT16=
EXTT17=
PLAYORDER=
